<?xml version="1.0" encoding="UTF-8"?>
<svg xmlns="http://www.w3.org/2000/svg" xmlns:xlink="http://www.w3.org/1999/xlink" width="649pt" height="865pt" viewBox="0 0 649 865" version="1.1">
<g id="surface1">
<path style=" stroke:none;fill-rule:evenodd;fill:rgb(96.099854%,50.999451%,12.199402%);fill-opacity:1;" d="M 0 1 L 648 1 L 648 289 L 0 289 L 0 1 "/>
<path style=" stroke:none;fill-rule:evenodd;fill:rgb(0%,65.098572%,31.399536%);fill-opacity:1;" d="M 0 577 L 648 577 L 648 865 L 0 865 L 0 577 "/>
<path style=" stroke:none;fill-rule:evenodd;fill:rgb(100%,100%,100%);fill-opacity:1;" d="M 170.8125 775.984375 L 170.558594 776.476563 L 170.128906 777.285156 L 169.746094 777.996094 L 169.410156 778.601563 L 169.132813 779.101563 L 168.914063 779.480469 L 168.777344 779.71875 L 164.628906 786.851563 L 123.035156 781.425781 L 127.542969 767.097656 L 127.59375 766.863281 L 127.707031 766.203125 L 127.835938 765.222656 L 127.960938 763.988281 L 128.070313 762.546875 L 128.167969 760.933594 L 128.246094 759.179688 L 128.308594 757.304688 L 128.351563 755.324219 L 128.378906 753.269531 L 128.394531 751.148438 L 128.390625 748.980469 L 128.378906 746.785156 L 128.351563 744.574219 L 128.316406 742.367188 L 128.273438 740.175781 L 128.222656 738.019531 L 128.164063 735.914063 L 128.101563 733.871094 L 128.035156 731.90625 L 127.972656 730.035156 L 127.902344 728.273438 L 127.839844 726.640625 L 127.773438 725.140625 L 127.714844 723.796875 L 127.660156 722.621094 L 127.613281 721.628906 L 127.578125 720.933594 L 115.949219 674.074219 L 113.8125 670.167969 L 111.003906 664.410156 L 108.425781 658.5 L 106.066406 652.457031 L 103.910156 646.308594 L 101.949219 640.070313 L 100.167969 633.769531 L 98.554688 627.429688 L 97.101563 621.066406 L 95.800781 614.707031 L 94.644531 608.371094 L 93.617188 602.085938 L 92.714844 595.871094 L 91.929688 589.753906 L 91.253906 583.75 L 90.675781 577.890625 L 90.191406 572.191406 L 89.792969 566.683594 L 89.472656 561.390625 L 89.222656 556.332031 L 89.03125 551.53125 L 88.898438 547.019531 L 88.8125 542.8125 L 88.765625 538.941406 L 88.753906 535.425781 L 88.765625 532.289063 L 88.796875 529.558594 L 88.839844 527.257813 L 88.886719 525.410156 L 88.929688 524.042969 L 88.957031 523.316406 L 88.765625 516.421875 L 88.738281 509.199219 L 88.871094 502.210938 L 89.160156 495.453125 L 89.589844 488.933594 L 90.152344 482.640625 L 90.835938 476.585938 L 91.628906 470.761719 L 92.523438 465.171875 L 93.507813 459.8125 L 94.570313 454.6875 L 95.699219 449.796875 L 96.886719 445.136719 L 98.117188 440.710938 L 99.386719 436.519531 L 100.675781 432.5625 L 101.980469 428.835938 L 103.285156 425.339844 L 104.585938 422.078125 L 105.863281 419.050781 L 107.109375 416.253906 L 108.316406 413.683594 L 109.46875 411.351563 L 110.558594 409.246094 L 111.578125 407.371094 L 112.507813 405.726563 L 112.703125 405.394531 L 112.390625 403.140625 L 112.046875 400.21875 L 111.738281 397.097656 L 111.453125 393.785156 L 111.191406 390.304688 L 110.953125 386.664063 L 110.734375 382.894531 L 110.535156 379.007813 L 110.355469 375.03125 L 110.1875 370.988281 L 110.039063 366.902344 L 109.90625 362.796875 L 109.785156 358.691406 L 109.679688 354.621094 L 109.585938 350.605469 L 109.503906 346.664063 L 109.433594 342.828125 L 109.371094 339.117188 L 109.320313 335.5625 L 109.277344 332.179688 L 109.242188 329.003906 L 109.214844 326.054688 L 109.195313 323.355469 L 109.179688 320.9375 L 109.164063 318.816406 L 109.15625 317.027344 L 109.152344 315.589844 L 109.152344 314.527344 L 109.148438 313.867188 L 109.148438 311.617188 L 110.296875 308.230469 L 110.789063 306.699219 L 111.308594 305.039063 L 111.84375 303.265625 L 112.394531 301.394531 L 112.953125 299.433594 L 113.523438 297.402344 L 114.097656 295.3125 L 114.671875 293.175781 L 115.25 291 L 115.824219 288.804688 L 116.394531 286.59375 L 116.960938 284.382813 L 117.515625 282.183594 L 118.058594 280.007813 L 118.589844 277.859375 L 119.105469 275.761719 L 119.601563 273.71875 L 120.078125 271.742188 L 120.535156 269.839844 L 120.964844 268.03125 L 121.367188 266.320313 L 121.746094 264.722656 L 122.089844 263.246094 L 122.402344 261.902344 L 122.679688 260.703125 L 122.921875 259.660156 L 123.054688 259.082031 L 122.988281 258.425781 L 122.816406 255.484375 L 122.746094 252.523438 L 122.765625 249.546875 L 122.871094 246.554688 L 123.050781 243.558594 L 123.300781 240.558594 L 123.605469 237.5625 L 123.96875 234.582031 L 124.382813 231.621094 L 124.835938 228.6875 L 125.324219 225.789063 L 125.84375 222.9375 L 126.386719 220.136719 L 126.953125 217.402344 L 127.527344 214.742188 L 128.113281 212.160156 L 128.703125 209.671875 L 129.289063 207.285156 L 129.867188 205.011719 L 130.429688 202.855469 L 130.972656 200.828125 L 131.492188 198.945313 L 131.984375 197.210938 L 132.4375 195.640625 L 132.851563 194.238281 L 133.21875 193.015625 L 133.53125 191.988281 L 133.789063 191.15625 L 133.984375 190.539063 L 134.113281 190.144531 L 134.441406 189.132813 L 136.695313 184.613281 L 138.789063 180.90625 L 140.992188 177.460938 L 143.296875 174.265625 L 145.691406 171.316406 L 148.171875 168.617188 L 150.722656 166.164063 L 153.339844 163.945313 L 155.996094 161.964844 L 158.683594 160.214844 L 161.386719 158.683594 L 164.089844 157.371094 L 166.769531 156.261719 L 169.417969 155.339844 L 172.015625 154.601563 L 174.550781 154.023438 L 177.007813 153.597656 L 179.378906 153.308594 L 181.648438 153.132813 L 183.816406 153.066406 L 185.871094 153.085938 L 186.230469 153.101563 L 186.644531 152.019531 L 187.5 149.898438 L 188.382813 147.855469 L 189.28125 145.886719 L 190.199219 143.996094 L 191.125 142.183594 L 192.058594 140.449219 L 192.992188 138.789063 L 193.925781 137.210938 L 194.855469 135.703125 L 195.773438 134.273438 L 196.679688 132.921875 L 197.5625 131.648438 L 198.429688 130.453125 L 199.265625 129.332031 L 200.074219 128.285156 L 200.847656 127.320313 L 201.585938 126.425781 L 202.28125 125.613281 L 202.929688 124.871094 L 203.527344 124.210938 L 204.074219 123.621094 L 204.5625 123.109375 L 204.992188 122.675781 L 205.355469 122.3125 L 205.640625 122.035156 L 205.726563 121.957031 L 207.449219 120.226563 L 209.6875 118.25 L 211.996094 116.457031 L 214.359375 114.839844 L 216.761719 113.394531 L 219.1875 112.109375 L 221.625 110.976563 L 224.0625 109.988281 L 226.492188 109.128906 L 228.898438 108.394531 L 231.277344 107.773438 L 233.621094 107.257813 L 235.925781 106.835938 L 238.175781 106.496094 L 240.367188 106.238281 L 242.5 106.050781 L 244.5625 105.925781 L 246.546875 105.855469 L 248.445313 105.832031 L 250.261719 105.851563 L 251.980469 105.90625 L 253.507813 105.984375 L 253.878906 105.386719 L 256.734375 101.476563 L 259.84375 97.808594 L 263.175781 94.378906 L 266.710938 91.195313 L 270.425781 88.253906 L 274.300781 85.554688 L 278.3125 83.105469 L 282.449219 80.910156 L 286.6875 78.964844 L 291.019531 77.277344 L 295.425781 75.859375 L 299.886719 74.710938 L 304.394531 73.84375 L 308.929688 73.269531 L 313.480469 73 L 318.03125 73.046875 L 322.5625 73.433594 L 327.058594 74.171875 L 331.492188 75.28125 L 335.835938 76.789063 L 340.050781 78.714844 L 344.101563 81.066406 L 347.933594 83.859375 L 351.503906 87.085938 L 354.757813 90.738281 L 357.65625 94.796875 L 360.15625 99.234375 L 360.902344 100.945313 L 363.625 100.226563 L 368.496094 99.316406 L 373.21875 98.820313 L 377.785156 98.730469 L 382.183594 99.039063 L 386.390625 99.730469 L 390.386719 100.785156 L 394.148438 102.175781 L 397.648438 103.859375 L 400.882813 105.796875 L 403.839844 107.941406 L 406.519531 110.242188 L 408.9375 112.660156 L 411.101563 115.15625 L 413.035156 117.699219 L 414.746094 120.253906 L 416.261719 122.792969 L 417.589844 125.292969 L 418.753906 127.730469 L 419.757813 130.085938 L 420.625 132.335938 L 421.359375 134.457031 L 421.980469 136.433594 L 422.488281 138.242188 L 422.902344 139.855469 L 423.226563 141.261719 L 423.414063 142.160156 L 423.65625 142.648438 L 424.742188 145.53125 L 425.648438 148.503906 L 426.460938 151.664063 L 427.214844 155.054688 L 427.925781 158.675781 L 428.605469 162.523438 L 429.257813 166.578125 L 429.882813 170.820313 L 430.484375 175.222656 L 431.0625 179.761719 L 431.621094 184.402344 L 432.152344 189.125 L 432.660156 193.890625 L 433.148438 198.671875 L 433.609375 203.441406 L 434.046875 208.167969 L 434.460938 212.816406 L 434.847656 217.359375 L 435.210938 221.761719 L 435.546875 225.996094 L 435.859375 230.027344 L 436.140625 233.828125 L 436.398438 237.363281 L 436.628906 240.605469 L 436.824219 243.519531 L 436.996094 246.074219 L 437.136719 248.238281 L 437.246094 249.980469 L 437.328125 251.265625 L 437.375 252.0625 L 437.390625 252.273438 L 444.097656 348.476563 L 446.160156 346.050781 L 448.53125 343.472656 L 450.90625 341.09375 L 453.269531 338.902344 L 455.613281 336.898438 L 457.925781 335.066406 L 460.195313 333.40625 L 462.410156 331.910156 L 464.558594 330.566406 L 466.632813 329.371094 L 468.621094 328.316406 L 470.507813 327.394531 L 472.289063 326.589844 L 473.953125 325.90625 L 475.488281 325.324219 L 476.886719 324.84375 L 478.136719 324.453125 L 479.230469 324.144531 L 480.15625 323.90625 L 480.902344 323.738281 L 481.195313 323.675781 L 487.453125 322.109375 L 493.871094 320.792969 L 499.929688 319.84375 L 505.652344 319.25 L 511.0625 319 L 516.171875 319.085938 L 520.992188 319.5 L 525.546875 320.238281 L 529.824219 321.296875 L 533.824219 322.660156 L 537.546875 324.324219 L 540.964844 326.261719 L 544.066406 328.445313 L 546.84375 330.832031 L 549.285156 333.378906 L 551.398438 336.03125 L 553.195313 338.75 L 554.695313 341.480469 L 555.921875 344.191406 L 556.90625 346.851563 L 557.675781 349.425781 L 558.261719 351.894531 L 558.6875 354.238281 L 558.976563 356.433594 L 559.15625 358.46875 L 559.242188 360.324219 L 559.265625 361.980469 L 559.234375 363.421875 L 559.171875 364.632813 L 559.097656 365.589844 L 559.027344 366.261719 L 558.929688 367.054688 L 551.496094 401.824219 L 551.703125 402.730469 L 551.996094 404.433594 L 552.214844 406.121094 L 552.371094 407.804688 L 552.480469 409.492188 L 552.550781 411.195313 L 552.582031 412.910156 L 552.582031 414.628906 L 552.558594 416.359375 L 552.507813 418.089844 L 552.4375 419.8125 L 552.347656 421.527344 L 552.242188 423.226563 L 552.128906 424.898438 L 551.996094 426.539063 L 551.859375 428.136719 L 551.71875 429.683594 L 551.570313 431.175781 L 551.421875 432.601563 L 551.273438 433.953125 L 551.128906 435.21875 L 550.992188 436.394531 L 550.859375 437.46875 L 550.734375 438.433594 L 550.625 439.277344 L 550.53125 439.996094 L 550.449219 440.578125 L 550.390625 441.011719 L 550.351563 441.273438 L 549.992188 443.78125 L 548.644531 446.054688 L 548.621094 446.101563 L 548.339844 446.9375 L 547.949219 448.320313 L 547.503906 450.121094 L 547.027344 452.269531 L 546.539063 454.710938 L 546.042969 457.394531 L 545.539063 460.292969 L 545.042969 463.367188 L 544.546875 466.589844 L 544.058594 469.933594 L 543.578125 473.367188 L 543.105469 476.859375 L 542.648438 480.390625 L 542.203125 483.933594 L 541.773438 487.460938 L 541.359375 490.941406 L 540.96875 494.355469 L 540.59375 497.675781 L 540.238281 500.878906 L 539.910156 503.929688 L 539.605469 506.8125 L 539.328125 509.5 L 539.074219 511.964844 L 538.851563 514.183594 L 538.660156 516.125 L 538.5 517.769531 L 538.371094 519.089844 L 538.28125 520.046875 L 538.371094 522.246094 L 538.375 525.628906 L 538.261719 529.078125 L 538.042969 532.597656 L 537.730469 536.179688 L 537.328125 539.8125 L 536.855469 543.488281 L 536.308594 547.199219 L 535.699219 550.929688 L 535.039063 554.671875 L 534.332031 558.40625 L 533.585938 562.121094 L 532.808594 565.804688 L 532.003906 569.441406 L 531.179688 573.015625 L 530.34375 576.515625 L 529.503906 579.925781 L 528.667969 583.226563 L 527.839844 586.40625 L 527.03125 589.453125 L 526.242188 592.34375 L 525.488281 595.070313 L 524.769531 597.613281 L 524.097656 599.957031 L 523.476563 602.089844 L 522.914063 603.988281 L 522.414063 605.644531 L 521.992188 607.042969 L 521.644531 608.160156 L 521.390625 608.988281 L 521.226563 609.503906 L 520.941406 610.414063 L 518.472656 615.78125 L 516.117188 620.546875 L 513.644531 625.242188 L 511.066406 629.859375 L 508.398438 634.394531 L 505.652344 638.84375 L 502.84375 643.203125 L 499.984375 647.460938 L 497.089844 651.621094 L 494.167969 655.671875 L 491.234375 659.609375 L 488.304688 663.429688 L 485.386719 667.121094 L 482.496094 670.6875 L 479.648438 674.117188 L 476.851563 677.402344 L 474.121094 680.542969 L 471.472656 683.527344 L 468.910156 686.351563 L 466.457031 689.007813 L 464.121094 691.496094 L 461.917969 693.800781 L 459.855469 695.921875 L 457.949219 697.851563 L 456.214844 699.585938 L 454.664063 701.109375 L 453.308594 702.425781 L 452.160156 703.527344 L 451.234375 704.402344 L 450.546875 705.050781 L 450.109375 705.453125 L 448.21875 707.1875 L 445.273438 708.304688 L 444.902344 708.480469 L 444.382813 708.773438 L 443.746094 709.191406 L 443.011719 709.722656 L 442.207031 710.367188 L 441.347656 711.113281 L 440.445313 711.953125 L 439.511719 712.878906 L 438.566406 713.871094 L 437.609375 714.921875 L 436.648438 716.027344 L 435.699219 717.167969 L 434.757813 718.339844 L 433.835938 719.527344 L 432.933594 720.726563 L 432.058594 721.921875 L 431.214844 723.105469 L 430.410156 724.265625 L 429.640625 725.394531 L 428.917969 726.484375 L 428.242188 727.523438 L 427.617188 728.5 L 427.046875 729.410156 L 426.53125 730.242188 L 426.246094 730.714844 L 423.621094 785.875 L 417.390625 790.066406 L 415.640625 790.980469 L 413.9375 791.660156 L 412.304688 792.160156 L 410.742188 792.515625 L 409.246094 792.753906 L 407.808594 792.902344 L 406.421875 792.980469 L 405.082031 793 L 403.78125 792.96875 L 402.519531 792.902344 L 401.289063 792.796875 L 400.09375 792.667969 L 398.929688 792.511719 L 397.800781 792.339844 L 396.703125 792.148438 L 395.644531 791.945313 L 394.621094 791.734375 L 393.644531 791.519531 L 392.707031 791.296875 L 391.816406 791.078125 L 390.980469 790.859375 L 390.195313 790.648438 L 389.46875 790.445313 L 388.808594 790.25 L 388.207031 790.070313 L 387.6875 789.910156 L 387.234375 789.769531 L 386.859375 789.648438 L 386.570313 789.550781 L 386.386719 789.488281 L 380.296875 787.421875 L 374.414063 767.351563 L 372.820313 767.453125 L 370.5625 767.4375 L 368.34375 767.25 L 366.171875 766.886719 L 364.066406 766.335938 L 362.046875 765.609375 L 360.132813 764.710938 L 358.351563 763.65625 L 356.726563 762.480469 L 355.265625 761.203125 L 353.980469 759.867188 L 353.546875 759.332031 L 353.097656 759.433594 L 350.941406 759.8125 L 348.820313 760.050781 L 346.714844 760.144531 L 344.601563 760.074219 L 342.476563 759.816406 L 340.34375 759.335938 L 338.222656 758.597656 L 336.167969 757.585938 L 334.246094 756.304688 L 332.53125 754.785156 L 331.078125 753.105469 L 329.910156 751.34375 L 329.023438 749.574219 L 328.386719 747.859375 L 327.960938 746.242188 L 327.695313 744.738281 L 327.5625 743.351563 L 327.519531 742.085938 L 327.546875 740.9375 L 327.613281 740.0625 L 324.429688 739.875 L 320.949219 739.585938 L 317.367188 739.195313 L 313.679688 738.703125 L 309.898438 738.09375 L 306.023438 737.367188 L 302.0625 736.511719 L 298.023438 735.519531 L 293.90625 734.382813 L 289.71875 733.097656 L 285.574219 731.695313 L 285.0625 731.878906 L 283.300781 732.492188 L 281.472656 733.113281 L 279.578125 733.734375 L 277.628906 734.359375 L 275.613281 734.976563 L 275.273438 735.074219 L 275.578125 735.785156 L 276.132813 737.816406 L 276.417969 739.816406 L 276.472656 741.742188 L 276.335938 743.574219 L 276.046875 745.3125 L 275.640625 746.972656 L 275.128906 748.570313 L 272.84375 754.507813 L 268.261719 756.605469 L 268.113281 756.675781 L 267.871094 756.78125 L 267.214844 757.0625 L 266.8125 757.226563 L 266.347656 757.40625 L 265.835938 757.601563 L 265.269531 757.808594 L 264.65625 758.027344 L 263.992188 758.253906 L 263.277344 758.484375 L 262.511719 758.726563 L 261.695313 758.96875 L 260.835938 759.214844 L 259.925781 759.460938 L 258.96875 759.703125 L 257.96875 759.941406 L 256.921875 760.179688 L 255.824219 760.410156 L 254.6875 760.628906 L 253.507813 760.839844 L 252.976563 760.929688 L 254.164063 771.910156 L 241.625 772.988281 L 241.46875 773 L 241.164063 773.03125 L 240.714844 773.082031 L 240.125 773.15625 L 239.414063 773.25 L 238.589844 773.367188 L 237.660156 773.515625 L 236.632813 773.6875 L 235.523438 773.890625 L 234.339844 774.125 L 233.089844 774.390625 L 231.789063 774.691406 L 230.445313 775.027344 L 229.070313 775.398438 L 227.671875 775.804688 L 226.261719 776.25 L 224.851563 776.730469 L 223.453125 777.246094 L 222.082031 777.796875 L 220.738281 778.386719 L 219.445313 779.003906 L 218.203125 779.652344 L 217.027344 780.328125 L 215.925781 781.023438 L 214.910156 781.734375 L 213.984375 782.457031 L 213.15625 783.183594 L 212.425781 783.90625 L 211.792969 784.621094 L 211.253906 785.324219 L 207.953125 790.410156 L 203.3125 791.632813 L 203.105469 791.6875 L 202.773438 791.769531 L 202.351563 791.871094 L 201.851563 791.980469 L 201.28125 792.101563 L 200.636719 792.230469 L 199.921875 792.359375 L 199.144531 792.488281 L 198.308594 792.609375 L 197.410156 792.722656 L 196.457031 792.824219 L 195.445313 792.90625 L 194.386719 792.960938 L 193.277344 792.992188 L 192.109375 792.984375 L 190.890625 792.933594 L 189.617188 792.832031 L 188.292969 792.664063 L 186.910156 792.421875 L 185.46875 792.082031 L 183.972656 791.628906 L 182.429688 791.039063 L 180.84375 790.285156 L 179.238281 789.335938 L 177.652344 788.175781 L 176.128906 786.785156 L 174.71875 785.175781 L 173.480469 783.363281 L 172.453125 781.398438 L 171.667969 779.332031 L 170.8125 775.984375 "/>
<path style=" stroke:none;fill-rule:evenodd;fill:rgb(13.699341%,12.199402%,12.5%);fill-opacity:1;" d="M 134.816406 513.03125 C 134.816406 513.03125 162.34375 496.511719 156.289063 519.085938 L 137.296875 531.382813 C 137.296875 531.382813 125.640625 535.601563 121.421875 529.546875 C 121.421875 529.546875 117.75 522.207031 134.816406 513.03125 Z M 186.84375 505.046875 C 186.84375 505.046875 170.328125 500.183594 199.050781 486.054688 C 199.050781 486.054688 338.339844 420.71875 354.855469 420.71875 C 354.855469 420.71875 370.730469 418.882813 363.390625 428.703125 C 362.746094 432.371094 348.710938 435.949219 333.476563 440.8125 L 215.566406 494.035156 C 215.566406 494.035156 197.214844 505.046875 186.84375 505.046875 Z M 167.207031 623.144531 C 167.207031 623.144531 169.6875 607.175781 199.691406 583.960938 C 199.691406 583.960938 297.507813 503.855469 312.738281 500.734375 C 315.214844 500.734375 354.855469 472.65625 354.855469 472.65625 C 354.855469 472.65625 368.253906 464.03125 369.539063 476.324219 C 369.539063 476.324219 363.390625 486.054688 353.570313 489.722656 L 296.222656 529.546875 C 296.222656 529.546875 264.472656 551.570313 259.609375 560.101563 C 259.609375 560.101563 233.273438 574.144531 218.59375 585.796875 C 218.59375 585.796875 197.214844 609.652344 191.066406 610.847656 C 190.515625 613.324219 180.695313 626.171875 172.714844 628.648438 C 172.714844 628.648438 167.851563 630.484375 167.207031 623.144531 Z M 188.039063 729.558594 C 188.039063 729.558594 200.242188 749.746094 256.488281 737.542969 C 256.488281 737.542969 267.503906 735.066406 263.1875 745.433594 C 263.1875 745.433594 254.105469 749.746094 239.421875 749.746094 L 240.617188 760.757813 C 240.617188 760.757813 210.058594 763.234375 200.242188 779.753906 C 200.242188 779.753906 185.007813 783.972656 183.175781 774.796875 L 187.394531 759.566406 C 187.394531 759.566406 163.628906 733.871094 188.039063 729.558594 Z M 366.269531 712.949219 C 402.566406 699.574219 431.84375 674.527344 431.84375 674.527344 C 507.636719 612.132813 507.636719 534.410156 507.636719 534.410156 C 507.636719 534.410156 505.34375 555.789063 506.445313 531.382813 C 507.636719 506.972656 520.484375 429.894531 520.484375 429.894531 C 527.824219 410.351563 520.484375 398.695313 520.484375 398.695313 C 515.621094 403.558594 512.59375 402.367188 512.59375 402.367188 C 503.414063 397.503906 505.800781 382.820313 505.800781 382.820313 C 511.949219 377.316406 521.769531 389.519531 521.769531 389.519531 C 525.988281 385.207031 526.632813 370.527344 526.632813 370.527344 C 531.492188 330.152344 475.246094 358.964844 475.246094 358.964844 C 434.964844 404.203125 447.71875 442.007813 447.71875 442.007813 C 464.234375 491.558594 447.71875 483.023438 447.71875 483.023438 C 432.484375 492.199219 433.128906 469.535156 433.128906 469.535156 C 428.171875 468.984375 407.433594 516.058594 407.433594 516.058594 C 395.140625 545.421875 389.082031 541.75 389.082031 541.75 C 380.550781 544.777344 385.414063 525.878906 385.414063 525.878906 C 367.0625 543.585938 368.253906 557.074219 368.253906 557.074219 C 360.363281 571.113281 354.214844 563.773438 354.214844 563.773438 C 351.738281 547.257813 370.730469 513.578125 370.730469 513.578125 C 328.523438 529.546875 273.007813 607.175781 273.007813 607.175781 C 261.996094 632.867188 249.792969 651.222656 249.792969 651.222656 C 239.421875 651.222656 241.808594 642.6875 241.808594 642.6875 C 246.121094 638.375 258.324219 606.625 258.324219 606.625 C 250.984375 609.011719 243.09375 626.171875 243.09375 626.171875 C 233.273438 647.550781 230.246094 638.375 230.246094 638.375 C 224.097656 605.339844 277.871094 577.261719 277.871094 577.261719 C 318.796875 518.535156 395.140625 489.722656 395.140625 489.722656 C 409.820313 472.011719 419.640625 445.128906 419.640625 445.128906 C 418.445313 420.078125 410.464844 381.535156 410.464844 381.535156 C 396.425781 357.679688 325.492188 378.507813 325.492188 378.507813 C 314.574219 383.371094 315.214844 369.976563 315.214844 369.976563 C 300.535156 365.660156 271.171875 379.703125 271.171875 379.703125 C 261.445313 394.382813 232.632813 412.183594 232.632813 412.183594 C 220.429688 413.378906 228.964844 400.53125 228.964844 400.53125 L 243.644531 381.535156 C 250.984375 371.992188 191.066406 403.558594 191.066406 403.558594 C 183.726563 413.378906 145.828125 419.527344 145.828125 419.527344 C 113.4375 438.980469 118.300781 557.625 118.300781 557.625 C 114.628906 575.425781 134.816406 643.328125 134.816406 643.328125 C 134.265625 651.222656 150.78125 662.234375 150.78125 662.234375 C 161.703125 691.597656 185.007813 704.441406 185.054688 704.394531 C 185.097656 704.347656 198.527344 713.417969 207.613281 713.519531 C 208.542969 713.617188 235.085938 719.765625 274.308594 704.441406 C 274.308594 704.441406 291.285156 701.65625 294.195313 706.179688 L 360.753906 708.628906 C 360.753906 708.628906 364.078125 710.195313 366.269531 712.949219 Z M 367.078125 718.625 C 367.039063 718.742188 366.992188 718.855469 366.941406 718.972656 Z M 366.964844 719.003906 C 366.199219 720.710938 364.542969 722.605469 361.523438 724.613281 C 361.523438 724.613281 328.277344 735.230469 285.601563 718.613281 C 270.179688 724.433594 243.320313 732.929688 217.117188 727.75 C 217.117188 727.75 201.5625 725.359375 198.78125 720.972656 C 175.714844 723.117188 169.769531 719.050781 169.726563 719.085938 L 170.878906 731.972656 C 167.207031 735.089844 164.179688 744.265625 164.179688 744.265625 C 171.519531 750.964844 158.125 773.628906 158.125 773.628906 L 139.128906 771.152344 C 142.15625 763.167969 139.773438 719.125 139.773438 719.125 L 127.476563 669.574219 C 96.921875 616.996094 101.234375 523.398438 101.234375 523.398438 C 98.207031 445.679688 125.640625 407.871094 125.640625 407.871094 C 121.421875 390.714844 121.421875 313.632813 121.421875 313.632813 C 126.925781 297.761719 135.460938 259.863281 135.460938 259.863281 C 132.429688 234.71875 145.828125 193.796875 145.828125 193.796875 C 163.628906 155.804688 194.734375 166.816406 194.734375 166.816406 C 200.882813 142.960938 214.28125 130.753906 214.28125 130.753906 C 230.796875 113.046875 260.160156 119.101563 260.160156 119.101563 C 278.054688 80.929688 344.394531 68.449219 353.023438 116.714844 C 404.316406 94.050781 411.65625 146.078125 411.65625 146.078125 C 419.640625 159.476563 425.144531 253.074219 425.144531 253.074219 L 434.871094 392.546875 C 450.839844 341.160156 483.871094 335.65625 483.871094 335.65625 C 553.515625 316.753906 546.816406 365.019531 546.816406 365.019531 L 538.835938 402.367188 C 542.503906 410.351563 538.191406 439.621094 538.191406 439.621094 C 532.6875 446.960938 525.988281 519.730469 525.988281 519.730469 C 527.824219 548.449219 509.472656 605.984375 509.472656 605.984375 C 488.09375 654.339844 441.660156 696.550781 441.660156 696.550781 C 428.816406 700.773438 414.132813 727.105469 414.132813 727.105469 L 411.65625 779.136719 C 406.148438 783.355469 390.277344 777.851563 390.277344 777.851563 L 382.933594 752.800781 C 360.363281 761.335938 360.363281 744.265625 360.363281 744.265625 C 335.3125 754.636719 340.175781 739.3125 340.175781 739.3125 C 364.03125 737.476563 375.59375 719.765625 375.59375 719.765625 C 371.128906 720.28125 368.320313 719.816406 366.964844 719.003906 Z M 154.546875 254.132813 C 154.730469 269.640625 142.804688 293.863281 142.804688 293.863281 C 137.296875 297.808594 136.378906 321.941406 136.378906 321.941406 C 140.691406 331.484375 138.855469 353.507813 138.855469 353.507813 C 137.664063 359.289063 142.253906 402.140625 142.253906 402.140625 C 144.636719 402.140625 152.34375 397.550781 152.34375 397.550781 C 159.6875 388.925781 170.054688 386.175781 170.054688 386.175781 C 192.351563 379.75 192.71875 373.328125 192.71875 373.328125 C 188.40625 356.8125 192.71875 307.902344 192.71875 307.902344 C 192.078125 287.992188 195.472656 269.363281 195.472656 269.363281 C 197.582031 262.664063 195.472656 249.449219 195.472656 249.449219 L 194.1875 210.359375 C 195.105469 178.796875 181.066406 184.667969 181.066406 184.667969 C 181.066406 184.667969 151.609375 188.613281 154.546875 254.132813 Z M 212.445313 164.433594 C 212.445313 164.433594 229.605469 114.238281 260.160156 149.109375 L 260.804688 190.125 C 260.804688 190.125 265.664063 219.488281 261.996094 231.691406 L 261.445313 300.238281 C 261.445313 300.238281 265.023438 317.945313 261.996094 329.601563 C 261.996094 329.601563 269.980469 366.304688 244.929688 354.652344 C 244.929688 354.652344 221.070313 355.292969 222.265625 370.527344 C 222.265625 370.527344 209.417969 377.867188 206.941406 347.953125 C 206.941406 347.953125 214.921875 306.9375 209.417969 293.445313 C 209.417969 293.445313 208.226563 262.246094 212.445313 247.566406 C 212.445313 247.566406 204.554688 173.605469 212.445313 164.433594 Z M 277.871094 132.589844 C 277.871094 132.589844 279.980469 117.542969 289.523438 109.742188 C 312.28125 91.023438 332.742188 101.390625 335.496094 127.085938 C 336.503906 137.269531 336.78125 150.300781 332.835938 161.3125 C 332.835938 161.3125 332.191406 200.492188 335.3125 216.367188 C 335.3125 216.367188 331.640625 280.050781 339.53125 292.894531 C 339.53125 292.894531 331.640625 329.601563 334.671875 337.492188 C 334.671875 337.492188 331.640625 357.679688 321.824219 351.621094 L 286.496094 356.488281 C 286.496094 356.488281 301.726563 346.667969 292.003906 337.492188 C 292.003906 337.492188 279.15625 340.613281 277.871094 330.152344 L 279.703125 211.503906 C 279.703125 211.503906 273.648438 132.589844 277.871094 132.589844 Z M 348.066406 151.585938 C 348.066406 151.585938 359.078125 114.882813 388.441406 133.234375 C 388.441406 133.234375 406.148438 147.914063 401.929688 211.503906 C 401.929688 211.503906 412.296875 259.863281 409.269531 282.4375 L 413.492188 339.328125 C 413.492188 339.328125 412.296875 355.292969 400.644531 348.503906 C 400.644531 348.503906 391.46875 352.816406 393.304688 356.488281 C 393.304688 356.488281 387.523438 351.714844 378.347656 353.550781 C 377.613281 353.640625 376.972656 353.824219 376.238281 354.007813 C 376.238281 354.007813 365.226563 354.007813 367.0625 340.613281 C 367.0625 340.613281 365.867188 336.941406 356.691406 340.613281 C 356.691406 340.613281 346.324219 339.96875 354.214844 299.59375 C 354.214844 299.59375 356.691406 275.09375 349.902344 253.074219 C 349.902344 253.074219 348.066406 228.023438 350.542969 218.203125 Z M 161.796875 269.957031 C 161.796875 269.957031 155.097656 264.085938 163.90625 261.699219 L 177.394531 254.632813 C 177.394531 254.632813 189.320313 251.878906 187.210938 260.136719 Z M 162.710938 273.257813 L 188.40625 262.890625 C 188.40625 262.890625 193.269531 272.984375 176.476563 277.570313 C 176.476563 277.570313 161.152344 285.832031 162.710938 273.257813 Z M 152.894531 327.121094 C 152.894531 327.121094 143.441406 319.78125 159.316406 316.386719 C 159.316406 316.386719 171.980469 310.789063 172.347656 317.671875 C 172.347656 318.132813 172.253906 318.589844 172.164063 319.140625 Z M 155.644531 330.152344 L 174.367188 321.617188 C 174.367188 321.617188 182.625 330.519531 169.136719 332.902344 C 169.136719 332.902344 156.015625 340.246094 155.644531 330.152344 Z M 225.109375 310.605469 C 225.109375 310.605469 222.996094 301.703125 235.476563 300.789063 C 235.476563 300.789063 249.609375 298.035156 247.40625 306.292969 Z M 224.191406 315.195313 L 247.132813 309.6875 C 247.132813 309.6875 250.160156 317.304688 237.3125 318.863281 C 237.3125 318.863281 222.078125 321.894531 224.191406 315.195313 Z M 225.109375 225.542969 L 251.992188 219.121094 C 251.992188 219.121094 262.089844 227.378906 242.542969 232.609375 C 242.542969 232.609375 224.191406 238.757813 225.109375 225.542969 Z M 224.832031 222.242188 L 251.71875 216.367188 C 251.71875 216.367188 252.910156 206.640625 236.394531 211.230469 C 219.878906 215.816406 224.832031 222.242188 224.832031 222.242188 Z M 295.765625 210.863281 L 321.640625 202.972656 C 321.640625 202.972656 326.59375 189.757813 306.132813 195.261719 C 306.132813 195.261719 290.898438 202.328125 295.765625 210.863281 Z M 296.40625 214.257813 L 322.28125 206 C 322.28125 206 326.226563 216.734375 309.804688 219.761719 C 309.804688 219.761719 296.957031 225.910156 296.40625 214.257813 Z M 293.285156 288.859375 C 293.285156 288.859375 290.257813 283.996094 310.722656 276.378906 C 310.722656 276.378906 321.089844 276.011719 318.886719 282.160156 L 294.203125 290.695313 Z M 293.285156 294.363281 L 319.253906 285.1875 C 319.253906 285.1875 325.035156 294.089844 308.609375 297.484375 C 308.609375 297.484375 294.203125 303.539063 293.285156 294.363281 Z M 362.933594 204.808594 L 386.238281 195.90625 C 386.238281 195.90625 388.625 185.535156 372.109375 191.59375 C 372.109375 191.59375 355.589844 196.179688 362.933594 204.808594 Z M 362.65625 208.476563 L 383.761719 200.492188 C 383.761719 200.492188 393.214844 206.640625 376.144531 214.53125 C 376.144531 214.53125 365.683594 221.597656 361.464844 214.53125 Z M 367.242188 278.214844 C 367.242188 278.214844 383.484375 265.644531 390.828125 276.65625 C 390.828125 276.65625 392.296875 280.324219 385.320313 280.050781 C 385.320313 280.050781 369.078125 281.519531 367.242188 278.214844 Z M 367.519531 283.355469 L 388.992188 282.160156 C 388.992188 282.160156 391.742188 292.253906 377.980469 290.417969 C 377.980469 290.417969 365.683594 291.980469 367.519531 283.355469 "/>
</g>
</svg>
